<svg xmlns="http://www.w3.org/2000/svg" viewBox="0 0 1080 1920">
<defs>
  <linearGradient id="bg" x1="0" y1="0" x2="0" y2="1"><stop stop-color="#071827"/><stop offset=".58" stop-color="#04101c"/><stop offset="1" stop-color="#01060b"/></linearGradient>
  <radialGradient id="halo"><stop stop-color="#d9c278" stop-opacity=".18"/><stop offset=".5" stop-color="#597a95" stop-opacity=".08"/><stop offset="1" stop-color="#000" stop-opacity="0"/></radialGradient>
  <linearGradient id="stone" x1="0" y1="0" x2="1" y2="1"><stop stop-color="#f4f1e7"/><stop offset=".35" stop-color="#cbc9c1"/><stop offset=".7" stop-color="#848b91"/><stop offset="1" stop-color="#434b53"/></linearGradient>
  <linearGradient id="stone2" x1="0" y1="1" x2="1" y2="0"><stop stop-color="#686f75"/><stop offset=".45" stop-color="#d7d3c8"/><stop offset="1" stop-color="#8e9295"/></linearGradient>
  <linearGradient id="gold" x1="0" y1="0" x2="1" y2="1"><stop stop-color="#f8dc87"/><stop offset=".48" stop-color="#c79a3e"/><stop offset="1" stop-color="#68440d"/></linearGradient>
  <filter id="shadow"><feGaussianBlur stdDeviation="22"/></filter>
</defs>
<rect width="1080" height="1920" fill="url(#bg)"/>
<ellipse cx="540" cy="850" rx="520" ry="760" fill="url(#halo)"/>
<g opacity=".12" fill="none" stroke="#94a9b9" stroke-width="4"><circle cx="540" cy="790" r="390"/><circle cx="540" cy="790" r="438"/><circle cx="540" cy="790" r="485"/></g>
<g opacity=".35" stroke="#d8c06b" fill="none" stroke-width="8"><path d="M72 290l160 165-80 104 165 154-105 150"/><path d="M1008 290L848 455l80 104-165 154 105 150"/></g>
<ellipse cx="540" cy="1110" rx="350" ry="520" fill="#000" opacity=".32" filter="url(#shadow)"/>
<g transform="translate(0 120)">
  <path d="M245 1428c32-226 142-390 295-426 153 36 263 200 295 426l78 352H167z" fill="#111923"/>
  <path d="M330 1210c75-105 139-150 210-150s135 45 210 150l78 414H252z" fill="#1a2430"/>
  <ellipse cx="540" cy="710" rx="250" ry="335" fill="url(#stone2)"/>
  <path d="M300 666c8-250 102-405 240-405s232 155 240 405c-48-96-121-153-240-153s-192 57-240 153z" fill="url(#stone)"/>
  <g fill="url(#stone)"><ellipse cx="316" cy="510" rx="118" ry="178"/><ellipse cx="398" cy="372" rx="126" ry="151"/><ellipse cx="522" cy="320" rx="139" ry="146"/><ellipse cx="654" cy="360" rx="132" ry="151"/><ellipse cx="758" cy="500" rx="116" ry="175"/><ellipse cx="275" cy="690" rx="92" ry="190"/><ellipse cx="805" cy="690" rx="92" ry="190"/></g>
  <path d="M367 660c48-27 95-32 143-10l-35 31c-34-10-68-7-104 10z" fill="#4b4c4e"/>
  <path d="M713 660c-48-27-95-32-143-10l35 31c34-10 68-7 104 10z" fill="#4b4c4e"/>
  <path d="M386 708c32-20 69-21 101 0-30 24-70 24-101 0z" fill="#e8e8e3"/>
  <path d="M593 708c32-21 69-20 101 0-31 24-71 24-101 0z" fill="#e8e8e3"/>
  <circle cx="442" cy="707" r="8" fill="#6d899b"/><circle cx="638" cy="707" r="8" fill="#6d899b"/>
  <path d="M540 682l38 190-38 50-38-50z" fill="#777b7d"/>
  <path d="M457 916c52 22 114 22 166 0-31 45-135 45-166 0z" fill="#626568"/>
  <path d="M300 828c61 48 111 59 155 37l85 68 85-68c44 22 94 11 155-37l-48 323-111 187-81 79-81-79-111-187z" fill="url(#stone)"/>
  <g fill="#9a9b99"><ellipse cx="402" cy="1006" rx="80" ry="104"/><ellipse cx="505" cy="1095" rx="86" ry="118"/><ellipse cx="620" cy="1006" rx="80" ry="104"/><ellipse cx="450" cy="1220" rx="76" ry="103"/><ellipse cx="565" cy="1245" rx="83" ry="110"/><ellipse cx="650" cy="1170" rx="72" ry="96"/></g>
  <path d="M365 433c34-120 106-186 175-186s141 66 175 186l-45-20c-84-37-176-37-260 0z" fill="url(#gold)" opacity=".82"/>
  <path d="M405 432c29-89 79-138 135-138s106 49 135 138" fill="none" stroke="#f4d67b" stroke-width="9"/>
</g>
<g transform="translate(810 1160)"><path d="M108 0L14 253l92-29-122 350 250-425-98 33 86-182z" fill="url(#gold)"/></g>
</svg>